<svg xmlns="http://www.w3.org/2000/svg" xmlns:xlink="http://www.w3.org/1999/xlink" width="75" height="41" version="1.1" viewBox="0 0 75 41"><title>Group</title><desc>Created with Sketch.</desc><g id="Page-1" fill="none" fill-rule="evenodd" stroke="none" stroke-width="1"><g id="Desktop-HD-Copy-17" fill="#FFF" fill-rule="nonzero" transform="translate(-395.000000, -1016.000000)"><g id="Group" transform="translate(394.000000, 1009.000000)"><path id="SUPER" d="M8.456,29.48 C11.912,29.48 14.952,26.824 14.952,23.016 C14.952,20.488 13.416,19.016 11.528,17.8 L9,16.2 C6.344,14.536 5.448,13.576 5.448,12.104 C5.448,10.824 6.312,10.024 7.592,10.024 C9.896,10.024 12.232,12.328 13.512,14.824 L14.344,8.52 C13.128,8.168 11.56,7.912 10.12,7.912 C5.384,7.912 2.376,10.856 2.376,14.216 C2.376,17 3.976,18.152 6.088,19.464 L9.416,21.512 C11.592,22.856 12.136,23.816 12.136,25.288 C12.136,26.568 11.208,27.464 9.864,27.464 C8.2,27.464 6.504,26.056 5.16,22.12 L1.8,24.232 C2.888,27.592 5.544,29.48 8.456,29.48 Z M23.192,29.48 C28.6,29.48 29.88,25.736 29.88,22.92 L29.88,13.48 C29.88,11.752 30.072,10.056 30.776,8.2 L27.256,8.2 C28.056,10.056 28.216,11.752 28.216,13.48 L28.216,22.824 C28.216,25.608 26.968,27.08 24.568,27.08 C22.136,27.08 20.728,25.608 20.728,22.824 L20.728,13.48 C20.728,11.752 20.792,10.056 21.496,8.2 L15.832,8.2 C16.472,10.056 16.696,11.752 16.696,13.48 L16.696,22.92 C16.696,25.736 17.912,29.48 23.192,29.48 Z M37.64,29 C37.032,27.144 36.776,25.384 36.776,23.656 L36.776,21.512 L37.352,21.512 C41.8,21.512 45.608,19.176 45.608,14.312 C45.608,8.744 41.096,8.2 38.504,8.2 L31.88,8.2 C32.584,10.056 32.744,11.816 32.744,13.544 L32.744,23.656 C32.744,25.384 32.584,27.144 31.912,29 L37.64,29 Z M37.416,20.296 L36.776,20.296 L36.776,13.544 C36.776,12.232 36.808,10.824 36.872,9.448 L37.224,9.448 C39.784,9.448 41.352,10.92 41.352,14.792 C41.352,18.408 39.944,20.296 37.416,20.296 Z M59.192,29 L59.096,23.272 C57.56,25.896 56.056,27.592 51.672,27.688 L51.576,27.688 C51.448,26.312 51.416,24.968 51.416,23.656 L51.416,18.952 L51.832,18.952 C54.2,18.952 55.736,19.656 57.496,21.512 L57.496,15.144 C55.736,17.064 54.2,17.608 51.832,17.608 L51.416,17.608 L51.416,13.544 C51.416,12.232 51.416,10.888 51.512,9.512 L51.832,9.512 C55.864,9.768 57.624,11.304 59.096,13.896 L59.224,8.2 L46.52,8.2 C47.192,10.056 47.384,11.816 47.384,13.544 L47.384,23.656 C47.384,25.384 47.16,27.144 46.52,29 L59.192,29 Z M65.992,29 C65.416,27.144 65.128,25.384 65.128,23.656 L65.128,20.2 C65.768,20.2 66.472,20.2 67.048,20.232 C67.592,20.328 68.008,20.84 68.392,22.216 L70.376,29 L75.56,29 C74.824,27.944 74.344,26.984 74.024,25.864 L72.744,21.672 C72.264,20.072 71.816,19.464 70.632,19.304 C72.296,18.504 74.152,16.744 74.152,13.864 C74.152,9.448 70.696,8.2 67.4,8.2 L60.168,8.2 C60.872,10.056 61.032,11.816 61.032,13.544 L61.032,23.656 C61.032,25.384 60.872,27.144 60.2,29 L65.992,29 Z M65.8,19.048 L65.128,19.048 L65.128,13.544 C65.128,12.232 65.16,10.856 65.192,9.48 C65.576,9.448 65.96,9.448 66.312,9.448 C68.584,9.448 69.896,11.272 69.928,14.44 C69.928,18.28 68.424,19.048 65.8,19.048 Z"/><path id="CULTURE" d="M5.94086896,47.312 C7.98086896,47.312 9.56486896,46.064 10.140869,44.408 C9.39686896,44.984 8.60486896,45.488 7.38086896,45.488 C5.38886896,45.488 3.56486896,44.192 3.56486896,40.64 C3.56486896,37.136 4.76486896,32.384 7.74086896,32.384 C9.37286896,32.384 10.404869,33.248 11.052869,35.192 L12.252869,31.832 C11.652869,31.544 10.788869,31.184 9.51686896,31.184 C4.59686896,31.184 1.33286896,36.176 1.33286896,41.456 C1.33286896,45.104 3.22886896,47.312 5.94086896,47.312 Z M15.839478,47.336 C19.703478,47.336 21.143478,44.6 21.527478,42.248 L22.775478,34.976 C22.991478,33.68 23.303478,32.792 24.047478,31.4 L21.743478,31.4 C21.935478,32.144 22.031478,32.768 22.031478,33.368 C22.031478,33.872 21.959478,34.376 21.863478,34.976 L20.615478,42.368 C20.207478,44.768 18.815478,46.064 16.727478,46.064 C14.975478,46.064 13.991478,45.128 13.991478,43.376 C13.991478,43.064 14.015478,42.728 14.087478,42.368 L15.335478,34.976 C15.551478,33.68 15.767478,32.792 16.511478,31.4 L13.247478,31.4 C13.391478,32.12 13.463478,32.72 13.463478,33.296 C13.463478,33.848 13.391478,34.352 13.295478,34.976 L12.047478,42.272 C11.975478,42.704 11.927478,43.16 11.927478,43.592 C11.927478,45.536 12.791478,47.336 15.839478,47.336 Z M31.030087,47 L31.726087,43.184 C30.262087,45.32 29.062087,46.256 25.846087,46.256 L25.486087,46.256 C25.558087,45.2 25.702087,44.264 25.870087,43.208 L27.214087,35.192 C27.430087,33.896 27.718087,32.792 28.414087,31.4 L25.198087,31.4 C25.318087,32.024 25.366087,32.576 25.366087,33.128 C25.366087,33.8 25.294087,34.472 25.174087,35.192 L23.830087,43.208 C23.614087,44.504 23.326087,45.608 22.558087,47 L31.030087,47 Z M36.6846957,47 C36.5406957,46.376 36.4926957,45.8 36.4926957,45.224 C36.4926957,44.552 36.5646957,43.904 36.6846957,43.208 L38.5806957,32.072 C41.1006957,32.168 41.7006957,32.888 42.2526957,35.6 L42.9486957,31.4 L32.4606957,31.4 L31.7166957,35.6 C33.2286957,32.912 33.8526957,32.168 36.5406957,32.072 L34.6446957,43.208 C34.4286957,44.504 34.1166957,45.608 33.3726957,47 L36.6846957,47 Z M46.2993043,47.336 C50.1633043,47.336 51.6033043,44.6 51.9873043,42.248 L53.2353043,34.976 C53.4513043,33.68 53.7633043,32.792 54.5073043,31.4 L52.2033043,31.4 C52.3953043,32.144 52.4913043,32.768 52.4913043,33.368 C52.4913043,33.872 52.4193043,34.376 52.3233043,34.976 L51.0753043,42.368 C50.6673043,44.768 49.2753043,46.064 47.1873043,46.064 C45.4353043,46.064 44.4513043,45.128 44.4513043,43.376 C44.4513043,43.064 44.4753043,42.728 44.5473043,42.368 L45.7953043,34.976 C46.0113043,33.68 46.2273043,32.792 46.9713043,31.4 L43.7073043,31.4 C43.8513043,32.12 43.9233043,32.72 43.9233043,33.296 C43.9233043,33.848 43.8513043,34.352 43.7553043,34.976 L42.5073043,42.272 C42.4353043,42.704 42.3873043,43.16 42.3873043,43.592 C42.3873043,45.536 43.2513043,47.336 46.2993043,47.336 Z M56.3299133,47 C56.1859133,46.328 56.1139133,45.728 56.1139133,45.152 C56.1139133,44.504 56.1859133,43.88 56.3059133,43.208 L56.7859133,40.352 L58.8739133,40.352 C59.3779133,40.352 59.7139133,40.424 59.8819133,41.48 L60.7459133,47 L63.5299133,47 C63.1219133,46.232 62.8339133,45.632 62.6899133,44.648 L62.1859133,41.312 C62.0659133,40.472 61.8979133,39.992 61.3219133,39.776 C63.1699133,38.888 64.4659133,36.968 64.4659133,34.736 C64.4659133,31.928 62.0659133,31.4 60.1219133,31.4 L55.6579133,31.4 C55.7779133,32.024 55.8259133,32.576 55.8259133,33.128 C55.8259133,33.8 55.7539133,34.472 55.6339133,35.192 L54.2899133,43.208 C54.0739133,44.504 53.7859133,45.608 53.0179133,47 L56.3299133,47 Z M58.3459133,39.656 L56.9059133,39.656 L57.6499133,35.192 C57.8179133,34.136 58.0099133,33.2 58.2739133,32.12 C58.6579133,32.096 59.0659133,32.096 59.4739133,32.096 C61.2739133,32.096 62.2099133,33.008 62.2099133,34.856 C62.2099133,35.24 62.1619133,35.672 62.0899133,36.152 C61.6579133,38.768 60.0499133,39.656 58.3459133,39.656 Z M73.264522,47 L73.864522,43.184 C72.136522,45.32 71.056522,46.28 67.768522,46.28 L67.336522,46.28 C67.408522,45.224 67.552522,44.264 67.720522,43.208 L68.368522,39.296 L68.968522,39.296 C71.200522,39.296 72.112522,39.68 73.024522,40.88 L73.696522,36.896 C72.352522,38.24 71.320522,38.6 69.088522,38.6 L68.488522,38.6 L69.064522,35.192 C69.232522,34.16 69.424522,33.128 69.664522,32.12 L70.168522,32.12 C73.456522,32.12 74.368522,33.176 75.184522,35.12 L75.904522,31.4 L67.048522,31.4 C67.168522,32.024 67.216522,32.576 67.216522,33.128 C67.216522,33.8 67.144522,34.472 67.024522,35.192 L65.680522,43.208 C65.464522,44.504 65.176522,45.608 64.408522,47 L73.264522,47 Z"/></g></g></g></svg>